<?xml version="1.0" encoding="UTF-8"?>
<svg version="1.1" viewBox="0 0 2048 459" width="794" height="178" xmlns="http://www.w3.org/2000/svg">
<path transform="translate(278)" d="m0 0h105l89 3 51 3 33 3 24 4 15 5 11 6 9 7 5 4 11 14 8 17 4 15 4 23 4 39 2 33 1 25v59l-2 43-3 36-4 28-5 22-5 13-7 12-11 12-10 8-16 8-19 5-31 4-39 3-72 3-85 2h-38l-81-2-54-2-47-3-30-3-22-4-15-5-13-8-10-9-9-10-8-14-5-15-4-20-4-31-3-37-2-40v-55l3-51 3-34 4-28 5-20 5-12 7-12 12-13 13-9 12-6 15-4 29-4 39-3 62-3z" fill="#FF140B"/>
<path transform="translate(1668,19)" d="m0 0h62l1 1 1 146 8-11 9-9 13-8 16-5h21l11 3 10 5 6 5 9 13 6 15 5 25 2 19 1 17v89l-2 26-3 19-6 21-8 16-7 9-10 8-13 5-5 1h-22l-11-3-16-8-10-9-7-10-6 24-1 2h-54zm88 160-8 3-8 6-6 9-3 6v166l7 8 8 4 12 2 9-3 6-5 4-8 4-16 2-19 1-27v-45l-1-31-2-22-4-15-6-9-8-4z" fill="#FEFEFE"/>
<path transform="translate(1455,139)" d="m0 0h65l1 225 3 11 5 6 4 2h8l9-3 9-6 5-8 1-227h65v286h-51l-2-7-4-25-1-2-5 9-7 9-8 8-14 8-13 4-6 1h-17l-14-3-11-6-9-9-8-16-4-17-1-8z" fill="#FEFEFE"/>
<path transform="translate(1124,139)" d="m0 0h65l1 220 3 15 4 6 6 3h8l9-3 8-6 4-5 1-2 1-228h65v286h-51l-5-30v-4l-3 3-7 11-7 8-12 9-12 5-14 3h-16l-14-3-11-6-7-6-7-11-5-13-3-15-1-11z" fill="#FEFEFE"/>
<path transform="translate(989,133)" d="m0 0h29l16 3 15 6 10 7 6 5 10 14 6 13 5 17 4 24 2 37v50l-2 33-4 24-5 17-8 16-7 9-9 8-15 8-15 4-15 2h-21l-20-3-15-5-11-7-8-7-6-8-6-10-7-21-4-24-2-26v-74l3-31 4-20 5-15 8-15 8-10 8-7 12-7 16-5zm8 45-6 3-5 6-4 9-3 17-1 17v105l1 17 3 16 4 9 4 5 6 3h12l7-4 5-7 4-15 2-20v-115l-2-20-3-12-5-8-6-5-3-1z" fill="#FEFEFE"/>
<path transform="translate(718,33)" d="m0 0h64l3 9 23 108 10 48 5 28h1l5-30 14-66 21-95 1-2h65l-13 48-17 60-23 82-20 71-1 130-1 1h-64l-1-129-13-47-16-58-20-72-21-76z" fill="#FEFEFE"/>
<path transform="translate(1953,133)" d="m0 0h24l19 3 14 5 10 7 9 9 6 10 5 12 5 21 3 22v82h-107v34l2 25 3 10 4 6v2l9 3h11l9-4 5-8 4-18 1-17h15l34 2 8 1v24l-3 16-5 13-7 11-9 9-13 8-14 5-15 3-21 1-20-2-16-5-11-6-10-9-6-7-8-15-5-15-4-20-2-18-1-17v-68l2-28 4-23 5-16 5-11 7-12 9-9 11-7 12-5 14-3zm6 44-8 3-6 8-3 11-2 26v40h46l1-4v-35l-2-26-4-13-4-6-5-3-4-1z" fill="#FEFEFE"/>
<path transform="translate(1283,33)" d="m0 0h191l1 1v51l-2 1h-63v339h-63v-339h-63l-1-1z" fill="#FEFEFE"/>
<path transform="translate(262,132)" d="m0 0 4 1 25 14 17 10 78 45 24 14 20 12v3l-28 16-24 14-78 45-28 16-8 5h-2z" fill="#FEFEFE"/>
</svg>
