<svg id="Layer_2" data-name="Layer 2" xmlns="http://www.w3.org/2000/svg" width="24" height="24" viewBox="0 0 24 24">
  <g id="invisible_box" data-name="invisible box">
    <rect id="Rectangle_1431" data-name="Rectangle 1431" width="24" height="24" fill="none"/>
  </g>
  <g id="icons_Q2" data-name="icons Q2" transform="translate(4 4)">
    <path id="Path_3913" data-name="Path 3913" d="M4,19.2H4a.8.8,0,0,1,.8-.8H19.2a.8.8,0,0,1,.8.8h0a.8.8,0,0,1-.8.8H4.8A.8.8,0,0,1,4,19.2Zm4-8.8a.8.8,0,0,0-.8-.8h0a.8.8,0,0,0-.8.8v6.4H8Zm9.6-5.6a.8.8,0,0,0-.8-.8h0a.8.8,0,0,0-.8.8v12h1.6ZM11.2,8a.8.8,0,0,0-.8-.8h0a.8.8,0,0,0-.8.8v8.8h1.6Zm3.2,3.6a.8.8,0,0,0-.8-.8h0a.8.8,0,0,0-.8.8v5.2h1.6Z" transform="translate(-4 -4)"/>
  </g>
</svg>
